<?xml version="1.0" standalone="no"?>
<!DOCTYPE svg PUBLIC "-//W3C//DTD SVG 20010904//EN"
 "http://www.w3.org/TR/2001/REC-SVG-20010904/DTD/svg10.dtd">
<svg version="1.0" xmlns="http://www.w3.org/2000/svg"
 width="360.000000pt" height="360.000000pt" viewBox="0 0 360.000000 360.000000"
 preserveAspectRatio="xMidYMid meet">
<metadata>
Created by potrace 1.14, written by Peter Selinger 2001-2017
</metadata>
<g transform="translate(0.000000,360.000000) scale(0.100000,-0.100000)"
fill="#000000" stroke="none">
<path d="M1710 2840 c-218 -21 -424 -123 -581 -287 -121 -127 -206 -275 -251
-440 -20 -71 -27 -84 -51 -94 -37 -15 -74 -61 -87 -107 -5 -20 -10 -122 -10
-227 0 -163 3 -196 19 -230 34 -75 103 -114 177 -100 47 8 111 68 124 113 5
21 10 125 10 232 0 213 -9 254 -62 296 l-25 20 26 75 c96 270 310 473 588 555
74 22 108 26 213 26 106 0 138 -4 213 -26 278 -82 493 -285 588 -555 l26 -75
-25 -20 c-53 -42 -62 -83 -62 -296 0 -107 5 -211 10 -232 13 -45 77 -105 124
-113 74 -14 143 25 177 100 16 34 19 68 19 238 0 156 -3 205 -15 235 -19 45
-48 77 -83 91 -23 10 -31 25 -50 94 -45 165 -130 313 -251 440 -199 209 -478
314 -761 287z"/>
<path d="M1583 2275 c-104 -29 -178 -80 -234 -162 -29 -41 -69 -141 -69 -170
0 -10 42 -13 215 -13 l215 0 0 -50 0 -50 -215 0 -215 0 0 -40 0 -40 215 0 215
0 0 -50 0 -50 -215 0 -215 0 0 -40 0 -40 218 0 217 0 -3 -50 -4 -50 -214 0
-214 0 0 -40 0 -40 215 0 215 0 0 -50 0 -50 -215 0 -215 0 0 -35 0 -35 215 0
215 0 0 -50 0 -50 -216 0 -216 0 6 -37 c12 -64 62 -160 109 -207 93 -92 201
-126 407 -126 206 0 314 34 407 126 47 47 97 143 109 207 l6 37 -216 0 -216 0
0 50 0 50 215 0 215 0 0 35 0 35 -215 0 -215 0 0 50 0 50 215 0 215 0 0 40 0
40 -214 0 -214 0 -4 50 -3 50 218 0 217 0 0 40 0 40 -215 0 -215 0 0 50 0 50
215 0 215 0 0 40 0 40 -215 0 -215 0 0 50 0 50 215 0 c170 0 215 3 215 13 0
34 -44 137 -78 182 -47 63 -106 107 -179 136 -52 20 -78 23 -243 26 -139 2
-198 -1 -237 -12z"/>
<path d="M610 1881 c-6 -12 -10 -93 -10 -194 0 -156 2 -176 18 -190 23 -21 46
-22 66 -1 13 13 16 45 16 198 0 128 -4 186 -12 194 -19 19 -66 15 -78 -7z"/>
<path d="M2912 1888 c-8 -8 -12 -66 -12 -194 0 -153 3 -185 16 -198 21 -21 47
-20 67 2 15 16 17 45 17 191 0 100 -4 180 -10 192 -12 22 -59 26 -78 7z"/>
</g>
</svg>
